<svg xmlns="http://www.w3.org/2000/svg" width="1200" height="675" viewBox="0 0 1200 675"><defs><linearGradient id="bg" x1="0" y1="0" x2="1" y2="1"><stop offset="0" stop-color="#06162f"/><stop offset=".55" stop-color="#0b4c86"/><stop offset="1" stop-color="#f7fbff"/></linearGradient><linearGradient id="gold" x1="0" y1="0" x2="1" y2="1"><stop offset="0" stop-color="#f3d178"/><stop offset="1" stop-color="#b98421"/></linearGradient><filter id="shadow" x="-20%" y="-20%" width="140%" height="140%"><feDropShadow dx="0" dy="18" stdDeviation="22" flood-color="#000" flood-opacity=".32"/></filter></defs><rect width="1200" height="675" fill="url(#bg)"/><circle cx="980" cy="100" r="210" fill="#fff" opacity=".12"/><circle cx="180" cy="560" r="260" fill="#00a7ff" opacity=".12"/><g opacity=".14" stroke="#fff" stroke-width="2"><path d="M0 470 C220 390 350 520 560 440 S930 340 1200 410" fill="none"/><path d="M0 520 C260 450 390 570 620 500 S950 410 1200 480" fill="none"/></g><g transform="translate(90 95)" filter="url(#shadow)"><rect width="1020" height="485" rx="42" fill="#fff" opacity=".94"/><rect x="34" y="34" width="952" height="417" rx="28" fill="#f3f8ff" stroke="#d7e7ff" stroke-width="3"/><g transform="translate(86 86)"><rect y="196" width="320" height="132" rx="14" fill="#124b85"/><rect x="38" y="128" width="94" height="200" rx="10" fill="#1c75bc"/><rect x="152" y="76" width="94" height="252" rx="10" fill="#0b5fa5"/><rect x="266" y="28" width="94" height="300" rx="10" fill="#0a4f88"/><path d="M-15 328 H395" stroke="url(#gold)" stroke-width="12" stroke-linecap="round"/></g><g transform="translate(500 122)"><text x="0" y="0" font-family="Arial, Helvetica, sans-serif" font-size="34" font-weight="700" fill="#0b4c86">PT. HUACHENG</text><text x="0" y="48" font-family="Arial, Helvetica, sans-serif" font-size="34" font-weight="700" fill="#0b4c86">BUILDING MATERIALS</text><rect y="74" width="84" height="6" rx="3" fill="url(#gold)"/><text x="0" y="132" font-family="Arial, Helvetica, sans-serif" font-size="22" font-weight="600" fill="#345">Company Profile · Product Catalog</text><text x="0" y="170" font-family="Arial, Helvetica, sans-serif" font-size="20" fill="#587">Bilingual Indonesia–China Website</text><g transform="translate(0 218)"><rect width="150" height="46" rx="23" fill="#0b4c86"/><text x="75" y="30" text-anchor="middle" font-family="Arial" font-size="16" font-weight="700" fill="#fff">Laravel</text><rect x="166" width="150" height="46" rx="23" fill="#1c75bc"/><text x="241" y="30" text-anchor="middle" font-family="Arial" font-size="16" font-weight="700" fill="#fff">Filament</text><rect x="332" width="150" height="46" rx="23" fill="url(#gold)"/><text x="407" y="30" text-anchor="middle" font-family="Arial" font-size="16" font-weight="700" fill="#1a1200">PostgreSQL</text></g></g></g></svg>